{
	"asset":{
		"generator":"Khronos glTF Blender I/O v4.5.47",
		"version":"2.0"
	},
	"extensionsUsed":[
		"KHR_materials_specular"
	],
	"scene":0,
	"scenes":[
		{
			"name":"Scene",
			"nodes":[
				0,
				1
			]
		}
	],
	"nodes":[
		{
			"mesh":0,
			"name":"counter"
		},
		{
			"mesh":1,
			"name":"counter_screen",
			"translation":[
				0.0023936787620186806,
				0.03154173120856285,
				0.02606838010251522
			]
		}
	],
	"materials":[
		{
			"doubleSided":true,
			"name":"Gray",
			"pbrMetallicRoughness":{
				"baseColorFactor":[
					0.0521487221121788,
					0.0521487221121788,
					0.0521487221121788,
					1
				],
				"metallicFactor":0,
				"roughnessFactor":0.5
			}
		},
		{
			"doubleSided":true,
			"extensions":{
				"KHR_materials_specular":{
					"specularFactor":0
				}
			},
			"name":"Material.009",
			"pbrMetallicRoughness":{
				"baseColorFactor":[
					0,
					0,
					0,
					1
				],
				"metallicFactor":0,
				"roughnessFactor":0.5
			}
		}
	],
	"meshes":[
		{
			"name":"Cube.003",
			"primitives":[
				{
					"attributes":{
						"POSITION":0,
						"NORMAL":1,
						"TEXCOORD_0":2,
						"TEXCOORD_1":3
					},
					"indices":4,
					"material":0
				}
			]
		},
		{
			"name":"Cube.004",
			"primitives":[
				{
					"attributes":{
						"POSITION":5,
						"NORMAL":6,
						"TEXCOORD_0":7,
						"TEXCOORD_1":8
					},
					"indices":9,
					"material":1
				}
			]
		}
	],
	"accessors":[
		{
			"bufferView":0,
			"componentType":5126,
			"count":324,
			"max":[
				0.08997204899787903,
				0.0694558322429657,
				0.0407879613339901
			],
			"min":[
				-0.08518468588590622,
				-4.339879922099499e-08,
				-0.043466582894325256
			],
			"type":"VEC3"
		},
		{
			"bufferView":1,
			"componentType":5126,
			"count":324,
			"type":"VEC3"
		},
		{
			"bufferView":2,
			"componentType":5126,
			"count":324,
			"type":"VEC2"
		},
		{
			"bufferView":3,
			"componentType":5126,
			"count":324,
			"type":"VEC2"
		},
		{
			"bufferView":4,
			"componentType":5123,
			"count":324,
			"type":"SCALAR"
		},
		{
			"bufferView":5,
			"componentType":5126,
			"count":8,
			"max":[
				0.06951100379228592,
				0.0231667198240757,
				0.0032976455986499786
			],
			"min":[
				-0.06951100379228592,
				-0.023166721686720848,
				-0.003297647461295128
			],
			"type":"VEC3"
		},
		{
			"bufferView":6,
			"componentType":5126,
			"count":8,
			"type":"VEC3"
		},
		{
			"bufferView":7,
			"componentType":5126,
			"count":8,
			"type":"VEC2"
		},
		{
			"bufferView":8,
			"componentType":5126,
			"count":8,
			"type":"VEC2"
		},
		{
			"bufferView":9,
			"componentType":5123,
			"count":12,
			"type":"SCALAR"
		}
	],
	"bufferViews":[
		{
			"buffer":0,
			"byteLength":3888,
			"byteOffset":0,
			"target":34962
		},
		{
			"buffer":0,
			"byteLength":3888,
			"byteOffset":3888,
			"target":34962
		},
		{
			"buffer":0,
			"byteLength":2592,
			"byteOffset":7776,
			"target":34962
		},
		{
			"buffer":0,
			"byteLength":2592,
			"byteOffset":10368,
			"target":34962
		},
		{
			"buffer":0,
			"byteLength":648,
			"byteOffset":12960,
			"target":34963
		},
		{
			"buffer":0,
			"byteLength":96,
			"byteOffset":13608,
			"target":34962
		},
		{
			"buffer":0,
			"byteLength":96,
			"byteOffset":13704,
			"target":34962
		},
		{
			"buffer":0,
			"byteLength":64,
			"byteOffset":13800,
			"target":34962
		},
		{
			"buffer":0,
			"byteLength":64,
			"byteOffset":13864,
			"target":34962
		},
		{
			"buffer":0,
			"byteLength":24,
			"byteOffset":13928,
			"target":34963
		}
	],
	"buffers":[
		{
			"byteLength":13952,
			"uri":"counter_01.bin"
		}
	]
}
