{
	"asset":{
		"generator":"Khronos glTF Blender I/O v4.5.47",
		"version":"2.0"
	},
	"extensionsUsed":[
		"KHR_materials_transmission",
		"KHR_materials_emissive_strength"
	],
	"scene":0,
	"scenes":[
		{
			"name":"Scene",
			"nodes":[
				0,
				1
			]
		}
	],
	"nodes":[
		{
			"mesh":0,
			"name":"Hanging Industrial Lamp"
		},
		{
			"mesh":1,
			"name":"Hanging Industrial Lamp.001",
			"translation":[
				0,
				-0.4512506425380707,
				0
			]
		}
	],
	"materials":[
		{
			"doubleSided":true,
			"emissiveFactor":[
				1,
				1,
				1
			],
			"extensions":{
				"KHR_materials_emissive_strength":{
					"emissiveStrength":24.999998092651367
				}
			},
			"name":"hanging_industrial_lamp"
		},
		{
			"doubleSided":true,
			"extensions":{
				"KHR_materials_transmission":{
					"transmissionFactor":1
				}
			},
			"name":"hanging_industrial_lamp_glass",
			"pbrMetallicRoughness":{
				"baseColorFactor":[
					0.800000011920929,
					0.800000011920929,
					0.800000011920929,
					1
				],
				"metallicFactor":0,
				"roughnessFactor":0.10000000149011612
			}
		}
	],
	"meshes":[
		{
			"name":"Cylinder",
			"primitives":[
				{
					"attributes":{
						"POSITION":0,
						"NORMAL":1,
						"TEXCOORD_0":2
					},
					"indices":3,
					"material":0
				}
			]
		},
		{
			"name":"Cylinder.002",
			"primitives":[
				{
					"attributes":{
						"POSITION":4,
						"NORMAL":5,
						"TEXCOORD_0":6
					},
					"indices":7,
					"material":1
				}
			]
		}
	],
	"accessors":[
		{
			"bufferView":0,
			"componentType":5126,
			"count":5427,
			"max":[
				0.10331014543771744,
				0.005814367439597845,
				0.10331018269062042
			],
			"min":[
				-0.1033102497458458,
				-0.5038543343544006,
				-0.103310227394104
			],
			"type":"VEC3"
		},
		{
			"bufferView":1,
			"componentType":5126,
			"count":5427,
			"type":"VEC3"
		},
		{
			"bufferView":2,
			"componentType":5126,
			"count":5427,
			"type":"VEC2"
		},
		{
			"bufferView":3,
			"componentType":5123,
			"count":6609,
			"type":"SCALAR"
		},
		{
			"bufferView":4,
			"componentType":5126,
			"count":436,
			"max":[
				0.09371646493673325,
				0.06147172302007675,
				0.0943259745836258
			],
			"min":[
				-0.09432763606309891,
				-0.0486738383769989,
				-0.09447069466114044
			],
			"type":"VEC3"
		},
		{
			"bufferView":5,
			"componentType":5126,
			"count":436,
			"type":"VEC3"
		},
		{
			"bufferView":6,
			"componentType":5126,
			"count":436,
			"type":"VEC2"
		},
		{
			"bufferView":7,
			"componentType":5123,
			"count":534,
			"type":"SCALAR"
		}
	],
	"bufferViews":[
		{
			"buffer":0,
			"byteLength":65124,
			"byteOffset":0,
			"target":34962
		},
		{
			"buffer":0,
			"byteLength":65124,
			"byteOffset":65124,
			"target":34962
		},
		{
			"buffer":0,
			"byteLength":43416,
			"byteOffset":130248,
			"target":34962
		},
		{
			"buffer":0,
			"byteLength":13218,
			"byteOffset":173664,
			"target":34963
		},
		{
			"buffer":0,
			"byteLength":5232,
			"byteOffset":186884,
			"target":34962
		},
		{
			"buffer":0,
			"byteLength":5232,
			"byteOffset":192116,
			"target":34962
		},
		{
			"buffer":0,
			"byteLength":3488,
			"byteOffset":197348,
			"target":34962
		},
		{
			"buffer":0,
			"byteLength":1068,
			"byteOffset":200836,
			"target":34963
		}
	],
	"buffers":[
		{
			"byteLength":201904,
			"uri":"lamps_02.bin"
		}
	]
}
