{
	"asset":{
		"generator":"Khronos glTF Blender I/O v3.5.30",
		"version":"2.0"
	},
	"scene":0,
	"scenes":[
		{
			"name":"Scene",
			"nodes":[
				0,
				1,
				2,
				3
			]
		}
	],
	"nodes":[
		{
			"mesh":0,
			"name":"revolver_base",
			"rotation":[
				0.4999999701976776,
				-0.4999999701976776,
				-0.5,
				0.5
			],
			"scale":[
				0.00697198323905468,
				0.00697198323905468,
				0.00697198323905468
			]
		},
		{
			"mesh":1,
			"name":"revolver_chamber",
			"translation":[
				0.00037682257243432105,
				0.0014090026961639524,
				-0.012198497541248798
			]
		},
		{
			"mesh":2,
			"name":"revolver_base_back",
			"translation":[
				-0.0010988436406478286,
				-0.07389669120311737,
				0.349991112947464
			]
		},
		{
			"mesh":3,
			"name":"revolver_base_trigger",
			"translation":[
				0.0005212429678067565,
				-0.19749557971954346,
				0.1763971596956253
			]
		}
	],
	"meshes":[
		{
			"name":"rev_anim.obj",
			"primitives":[
				{
					"attributes":{
						"POSITION":0,
						"TEXCOORD_0":1,
						"NORMAL":2
					},
					"indices":3
				}
			]
		},
		{
			"name":"rev_anim.obj.001",
			"primitives":[
				{
					"attributes":{
						"POSITION":4,
						"TEXCOORD_0":5,
						"NORMAL":6
					},
					"indices":7
				}
			]
		},
		{
			"name":"rev_anim.obj.002",
			"primitives":[
				{
					"attributes":{
						"POSITION":8,
						"TEXCOORD_0":9,
						"NORMAL":10
					},
					"indices":11
				}
			]
		},
		{
			"name":"rev_anim.obj.003",
			"primitives":[
				{
					"attributes":{
						"POSITION":12,
						"TEXCOORD_0":13,
						"NORMAL":14
					},
					"indices":15
				}
			]
		}
	],
	"accessors":[
		{
			"bufferView":0,
			"componentType":5126,
			"count":7801,
			"max":[
				107.59790802001953,
				112.19851684570312,
				19.28209686279297
			],
			"min":[
				-35.83620071411133,
				-136.21099853515625,
				-19.282094955444336
			],
			"type":"VEC3"
		},
		{
			"bufferView":1,
			"componentType":5126,
			"count":7801,
			"type":"VEC2"
		},
		{
			"bufferView":2,
			"componentType":5126,
			"count":7801,
			"type":"VEC3"
		},
		{
			"bufferView":3,
			"componentType":5123,
			"count":8358,
			"type":"SCALAR"
		},
		{
			"bufferView":4,
			"componentType":5126,
			"count":1610,
			"max":[
				0.13309746980667114,
				0.13305333256721497,
				0.13420839607715607
			],
			"min":[
				-0.13309741020202637,
				-0.1330539882183075,
				-0.1587093025445938
			],
			"type":"VEC3"
		},
		{
			"bufferView":5,
			"componentType":5126,
			"count":1610,
			"type":"VEC2"
		},
		{
			"bufferView":6,
			"componentType":5126,
			"count":1610,
			"type":"VEC3"
		},
		{
			"bufferView":7,
			"componentType":5123,
			"count":1968,
			"type":"SCALAR"
		},
		{
			"bufferView":8,
			"componentType":5126,
			"count":601,
			"max":[
				0.03520442917943001,
				0.22594021260738373,
				0.05987080931663513
			],
			"min":[
				-0.03300667554140091,
				-0.0045092045329511166,
				-0.22284410893917084
			],
			"type":"VEC3"
		},
		{
			"bufferView":9,
			"componentType":5126,
			"count":601,
			"type":"VEC2"
		},
		{
			"bufferView":10,
			"componentType":5126,
			"count":601,
			"type":"VEC3"
		},
		{
			"bufferView":11,
			"componentType":5123,
			"count":852,
			"type":"SCALAR"
		},
		{
			"bufferView":12,
			"componentType":5126,
			"count":441,
			"max":[
				0.019095610827207565,
				0.031913816928863525,
				0.0035209485795348883
			],
			"min":[
				-0.02013976126909256,
				-0.22225062549114227,
				-0.19652901589870453
			],
			"type":"VEC3"
		},
		{
			"bufferView":13,
			"componentType":5126,
			"count":441,
			"type":"VEC2"
		},
		{
			"bufferView":14,
			"componentType":5126,
			"count":441,
			"type":"VEC3"
		},
		{
			"bufferView":15,
			"componentType":5123,
			"count":1200,
			"type":"SCALAR"
		}
	],
	"bufferViews":[
		{
			"buffer":0,
			"byteLength":93612,
			"byteOffset":0,
			"target":34962
		},
		{
			"buffer":0,
			"byteLength":62408,
			"byteOffset":93612,
			"target":34962
		},
		{
			"buffer":0,
			"byteLength":93612,
			"byteOffset":156020,
			"target":34962
		},
		{
			"buffer":0,
			"byteLength":16716,
			"byteOffset":249632,
			"target":34963
		},
		{
			"buffer":0,
			"byteLength":19320,
			"byteOffset":266348,
			"target":34962
		},
		{
			"buffer":0,
			"byteLength":12880,
			"byteOffset":285668,
			"target":34962
		},
		{
			"buffer":0,
			"byteLength":19320,
			"byteOffset":298548,
			"target":34962
		},
		{
			"buffer":0,
			"byteLength":3936,
			"byteOffset":317868,
			"target":34963
		},
		{
			"buffer":0,
			"byteLength":7212,
			"byteOffset":321804,
			"target":34962
		},
		{
			"buffer":0,
			"byteLength":4808,
			"byteOffset":329016,
			"target":34962
		},
		{
			"buffer":0,
			"byteLength":7212,
			"byteOffset":333824,
			"target":34962
		},
		{
			"buffer":0,
			"byteLength":1704,
			"byteOffset":341036,
			"target":34963
		},
		{
			"buffer":0,
			"byteLength":5292,
			"byteOffset":342740,
			"target":34962
		},
		{
			"buffer":0,
			"byteLength":3528,
			"byteOffset":348032,
			"target":34962
		},
		{
			"buffer":0,
			"byteLength":5292,
			"byteOffset":351560,
			"target":34962
		},
		{
			"buffer":0,
			"byteLength":2400,
			"byteOffset":356852,
			"target":34963
		}
	],
	"buffers":[
		{
			"byteLength":359252,
			"uri":"revolver.bin"
		}
	]
}
