{
	"asset":{
		"generator":"Khronos glTF Blender I/O v4.5.47",
		"version":"2.0"
	},
	"scene":0,
	"scenes":[
		{
			"name":"Scene",
			"nodes":[
				0
			]
		}
	],
	"nodes":[
		{
			"mesh":0,
			"name":"Aset_interior_furnituretable",
			"rotation":[
				0.7071068286895752,
				0,
				0,
				0.7071068286895752
			],
			"scale":[
				0.009999999776482582,
				0.009999999776482582,
				0.009999999776482582
			],
			"translation":[
				0,
				-0.0014270000392571092,
				0
			]
		}
	],
	"meshes":[
		{
			"name":"Aset_interior_furniture_M_ukkiejiaw_LOD0",
			"primitives":[
				{
					"attributes":{
						"POSITION":0,
						"NORMAL":1,
						"TEXCOORD_0":2
					},
					"indices":3
				}
			]
		}
	],
	"accessors":[
		{
			"bufferView":0,
			"componentType":5126,
			"count":6622,
			"max":[
				52.52667236328125,
				38.11714172363281,
				0.9606490135192871
			],
			"min":[
				-51.38887405395508,
				-36.561073303222656,
				-81.57368469238281
			],
			"type":"VEC3"
		},
		{
			"bufferView":1,
			"componentType":5126,
			"count":6622,
			"type":"VEC3"
		},
		{
			"bufferView":2,
			"componentType":5126,
			"count":6622,
			"type":"VEC2"
		},
		{
			"bufferView":3,
			"componentType":5123,
			"count":6624,
			"type":"SCALAR"
		}
	],
	"bufferViews":[
		{
			"buffer":0,
			"byteLength":79464,
			"byteOffset":0,
			"target":34962
		},
		{
			"buffer":0,
			"byteLength":79464,
			"byteOffset":79464,
			"target":34962
		},
		{
			"buffer":0,
			"byteLength":52976,
			"byteOffset":158928,
			"target":34962
		},
		{
			"buffer":0,
			"byteLength":13248,
			"byteOffset":211904,
			"target":34963
		}
	],
	"buffers":[
		{
			"byteLength":225152,
			"uri":"table_01.bin"
		}
	]
}
